<?xml version="1.0" encoding="UTF-8" standalone="no"?>
<!DOCTYPE svg PUBLIC "-//W3C//DTD SVG 1.1//EN" "http://www.w3.org/Graphics/SVG/1.1/DTD/svg11.dtd">
<svg width="100%" height="100%" viewBox="0 0 809 809" version="1.1" xmlns="http://www.w3.org/2000/svg" xmlns:xlink="http://www.w3.org/1999/xlink" xml:space="preserve" xmlns:serif="http://www.serif.com/" style="fill-rule:evenodd;clip-rule:evenodd;stroke-linejoin:round;stroke-miterlimit:2;">
    <g>
        <path d="M190.129,290.871C204.904,320.546 212.546,353.154 213.946,388.313C213.946,392.258 213.946,396.333 213.567,400.029L46.067,399.646L43.521,398.117C48.871,351.883 55.621,306.283 86.317,270.617C103.004,252.658 126.567,241.321 150.513,250.746C167.963,257.117 181.975,275.075 190.129,290.871Z" style="fill:rgb(35,31,32);"/>
        <path d="M446.533,396.971C452.013,406.654 454.558,418.5 455.196,430.217L425.771,430.217C424.496,418.879 422.079,406.142 409.979,401.683C405.008,400.158 399.404,401.175 395.458,404.233C386.288,412.767 384.5,424.613 383.1,436.329C381.829,453.4 381.954,471.358 391.763,484.479C397.242,490.975 405.517,493.525 413.546,491.358C424.754,486.263 425.771,473.654 427.808,462.954C436.979,463.208 446.533,462.696 455.833,462.954C455.196,485.754 445.258,510.462 421.95,518.104C406.154,522.946 387.304,520.779 375.204,509.446C358.392,493.267 353.55,471.871 352.404,449.071C352.658,423.85 356.354,399.775 375.842,382.833C388.833,372.262 409.85,370.35 425.262,376.975C433.796,380.542 442.075,388.692 446.533,396.971Z" style="fill:rgb(35,31,32);"/>
        <path d="M559.517,402.321C573.654,430.346 571.488,471.742 555.183,498.108C544.742,514.283 527.671,521.8 508.567,519.888C491.625,519 475.7,505.625 469.204,490.213C455.45,460.025 456.85,416.333 477.613,389.842C489.588,374.808 508.437,370.35 526.779,374.683C540.538,377.613 553.275,389.583 559.517,402.321Z" style="fill:rgb(35,31,32);"/>
        <path d="M346.292,517.054L316.229,517.054L316.229,490.592L287.442,490.721L271.904,517.054C261.204,517.312 250.375,517.054 239.679,517.054L315.467,377.613L346.292,377.613L346.292,517.054Z" style="fill:rgb(35,31,32);"/>
        <path d="M623.967,377.738C639.317,377.738 654.283,388.692 660.65,403.212C667.4,416.971 665.746,436.329 655.429,447.796C650.717,454.037 644.475,459.133 638.617,463.846L670.458,516.996L670.588,516.996L638.487,516.996L605.783,468.683L605.783,516.996L575.692,516.996L575.692,377.613L623.967,377.738Z" style="fill:rgb(35,31,32);"/>
        <path d="M741.662,446.904L741.533,380.033L768.796,380.033L768.796,516.954L746.129,516.954L704.85,444.1L705.112,516.954L675.817,516.954L675.554,377.613L703.45,377.613L741.662,446.904Z" style="fill:rgb(35,31,32);"/>
        <path d="M531.875,411.621C538.117,424.867 538.371,440.917 537.863,456.712C536.458,468.05 534.421,479.129 526.017,487.538C521.683,491.229 515.825,492.758 509.967,491.483C497.613,487.917 494.3,474.546 492.263,463.587C490.604,445.629 490.604,425.888 498.5,410.6C502.45,403.342 509.967,399.646 518.246,400.921C523.979,401.683 529.2,406.4 531.875,411.621Z" style="fill:white;"/>
        <path d="M633.013,414.804C635.429,421.046 634.667,429.325 629.825,434.167C624.096,441.3 613.554,439.133 605.783,439.133L605.783,406.779C615.721,407.417 628.3,404.233 633.013,414.804Z" style="fill:white;"/>
        <path d="M220.442,413.467C215.475,444.167 199.938,477.983 168.221,490.213L135.992,500.783C133.875,501.658 132.046,504.096 131.662,506.387C131.025,510.208 132.842,513.758 135.992,515.688L139.687,517.979L172.296,533.771L173.571,537.467C169.113,537.212 165.033,535.046 160.704,533.9L37.15,494.542L37.025,494.542C37.533,493.012 39.442,490.213 39.442,490.213C40.417,489.796 108.992,507.787 108.992,507.787C111.154,508.3 113.704,508.042 115.358,506.642C116.504,505.625 116.887,504.221 116.504,502.821C115.358,497.6 110.071,498.554 106.317,497.471C77.146,490.213 47.342,462.062 40.079,432.508C38.554,426.271 37.15,420.092 36.513,413.467L220.442,413.467Z" style="fill:rgb(35,31,32);"/>
        <path d="M301.838,461.55L315.467,435.696L315.592,461.55L301.838,461.55Z" style="fill:white;"/>
    </g>
</svg>
