<?xml version="1.0" encoding="UTF-8" standalone="no"?>
<!DOCTYPE svg PUBLIC "-//W3C//DTD SVG 1.1//EN" "http://www.w3.org/Graphics/SVG/1.1/DTD/svg11.dtd">
<svg width="100%" height="100%" viewBox="0 0 510 435" version="1.1" xmlns="http://www.w3.org/2000/svg" xmlns:xlink="http://www.w3.org/1999/xlink" xml:space="preserve" xmlns:serif="http://www.serif.com/" style="fill-rule:evenodd;clip-rule:evenodd;">
    <g id="Layer-1" serif:id="Layer 1">
        <path id="path8948" d="M121.965,330C105.126,330.813 96.001,354.258 106.156,369.256C112.218,378.209 139.149,378.932 155.09,378.534" style="fill:none;fill-rule:nonzero;stroke:black;stroke-width:4.47px;"/>
        <path id="path8948-36" d="M155,305C141.056,294.06 121.548,307.34 121.973,326.376C122.229,337.855 144.125,354.414 157.09,365" style="fill:none;fill-rule:nonzero;stroke:black;stroke-width:4.47px;"/>
        <path id="path8948-3" d="M185,305C179.465,286.603 159.992,287.552 154.71,305C153.774,308.091 157.904,334.833 162.483,352.417" style="fill:none;fill-rule:nonzero;stroke:black;stroke-width:4.47px;"/>
        <path id="path3155_2_-5-1-7-5-5-1" d="M184.199,333C185.113,332.399 176.707,335.323 173.158,337.658C158.669,351.752 152.451,375.495 155.443,397.042C156.677,404.913 160.017,418.308 170,420" style="fill:none;fill-rule:nonzero;stroke:black;stroke-width:4.56px;stroke-linecap:round;stroke-linejoin:round;"/>
        <path id="path3155_2_-5-1-7-5-5" d="M178.143,349.797C167.256,364.082 162.808,384.645 165.429,403.522C166.663,411.393 168.655,420.45 174.638,425.142C181.093,429.402 188.65,430.751 195.918,431.523C212.203,431.728 228.513,432.163 244.785,431.295C253.084,430.378 261.604,429.589 269.465,426.166C274.21,423.614 276.634,418.39 278.057,412.737" style="fill:none;fill-rule:nonzero;stroke:black;stroke-width:4.56px;stroke-linecap:round;stroke-linejoin:round;"/>
        <path id="path3155_2_-5-1-7-5-4" d="M182.297,338.202C175.995,352.125 173.78,368.691 175.946,384.219C177.306,392.852 179.501,402.786 186.094,407.932C193.208,412.604 201.535,414.084 209.544,414.931C227.49,415.155 245.462,415.632 263.394,414.681C272.539,413.675 281.927,412.81 290.59,409.055C298.06,405.055 300.312,395.073 301.583,386.281" style="fill:none;fill-rule:nonzero;stroke:black;stroke-width:5.01px;stroke-linecap:round;stroke-linejoin:round;"/>
        <path id="path3155_2_-5-1-7-5-7" d="M183.971,329.249C181.432,339.662 180.875,350.746 182.394,361.351C183.804,370.074 186.08,380.111 192.917,385.31C200.294,390.031 208.929,391.527 217.234,392.382C235.844,392.609 254.482,393.091 273.077,392.13C282.56,391.113 292.296,390.239 301.279,386.445C309.494,382.159 313.072,359.826 313.083,359.67" style="fill:none;fill-rule:nonzero;stroke:black;stroke-width:5.12px;stroke-linecap:round;stroke-linejoin:round;"/>
        <path id="path3155_2_-5-1-7-5" d="M188.765,293.226C184.077,306.566 182.638,321.523 184.642,335.674C186.122,344.935 188.512,355.591 195.69,361.111C203.436,366.124 212.503,367.711 221.223,368.619C240.762,368.86 260.331,369.372 279.855,368.351C289.813,367.272 300.035,366.344 309.467,362.316C311.712,361.132 313.524,359.459 315,357.459C319.196,351.774 320.679,343.448 321.676,336.194C322.423,328.121 321.262,322.984 320,315" style="fill:none;fill-rule:nonzero;stroke:black;stroke-width:5.41px;stroke-linecap:round;stroke-linejoin:round;"/>
        <path id="path3155_2_-5-1" d="M209.054,195.418C223.589,211.711 244.917,222.767 258.431,223.408L259.5,223.408C272.135,222.856 292.04,213.937 306.439,200.322C307.647,202.375 310.523,209.147 310.895,210.085C305.121,214.634 298.853,219.56 296.463,227.51C292.4,239.325 295.193,254.204 304.108,261.541C308.636,264.812 321.936,260.759 323.6,260.057C325.576,277.269 325.044,294.89 320.934,311.627C312.12,344.616 303.283,327.178 280.55,341.768C272.521,347.712 242.559,349.403 234.16,343.774C208.404,327.107 198.859,339.355 190.388,301.202C187.048,287.492 186.507,273.2 187.948,259.178C190.431,260.638 193.234,261.698 196.816,262.713C200.857,264.266 207.093,261.541 210.043,260.38C214.586,258.853 219.696,251.235 221.633,246.748C222.684,240.576 222.715,242.746 220.5,235.685C218.419,229.856 215.703,224.032 212.961,218.249L212.961,218.25C210.859,214.125 207.812,208.113 204.298,202.154C205.737,199.543 207.329,197.317 209.054,195.418Z" style="fill:none;fill-rule:nonzero;stroke:black;stroke-width:5.18px;stroke-linecap:round;stroke-linejoin:round;"/>
        <path id="path9535-5-8" d="M157.292,206.428C158.731,211.942 161.221,219.811 163.072,223.976C167.027,233.866 169.402,238.747 176.775,247.886C183.525,257.183 179.963,252.383 187.197,260" style="fill:none;fill-rule:nonzero;stroke:black;stroke-width:4.44px;"/>
        <path id="path9535-5-81" serif:id="path9535-5-8" d="M202.961,200C196.335,190.921 187.904,182.337 186.651,181.595" style="fill:none;fill-rule:nonzero;stroke:black;stroke-width:4.44px;"/>
        <path id="path9535-5-4" d="M311.611,209.52L311.611,210.521C315.483,207.706 319.398,203.914 323.546,201.699C328.68,199.295 334.153,196.869 339.716,197.485C339.858,197.533 339.999,197.584 340.14,197.636" style="fill:none;fill-rule:nonzero;stroke:black;stroke-width:3.7px;"/>
        <path id="path9535-5-41" serif:id="path9535-5-4" d="M348.595,242.124C344.077,248.341 340.82,250.719 334.369,254.602C330.899,256.946 328.107,257.467 324.228,258.731" style="fill:none;fill-rule:nonzero;stroke:black;stroke-width:3.7px;"/>
        <path id="path8693" d="M273.601,105.63C284.38,72.965 299.01,45.407 313.143,15.642C315.716,11.435 318.533,7.547 321.481,3.887" style="fill:none;fill-rule:nonzero;stroke:black;stroke-width:4.58px;stroke-linecap:round;stroke-linejoin:round;"/>
        <path id="path3155_2_" d="M209,195C202.865,189.997 196.046,181.929 193.562,163.782C190.824,143.781 209.013,123.55 214.043,118.742C216.246,119.753 218.672,120.313 221.219,120.313C229.392,120.313 236.313,114.551 238.662,106.597C244.698,105.07 251.297,104.213 258.431,104.125L258.431,104.11L259.644,104.11L259.644,104.125C266.435,104.213 272.781,105.042 278.64,106.515C280.967,114.508 287.907,120.307 296.107,120.307C298.746,120.307 301.255,119.706 303.521,118.625C307.931,122.529 326.858,140.324 324.513,163.782C321.282,196.1 306.009,200.038 305,202" style="fill:none;fill-rule:nonzero;stroke:black;stroke-width:5.33px;stroke-linecap:round;stroke-linejoin:round;"/>
        <path id="path8693-7" d="M241.861,106.36C231.082,73.695 216.452,44.137 202.319,14.372C199.747,10.165 196.929,6.277 193.982,2.617" style="fill:none;fill-rule:nonzero;stroke:black;stroke-width:4.58px;stroke-linecap:round;stroke-linejoin:round;"/>
        <path id="path3159" d="M314.406,100.625C314.408,111.494 306.215,120.307 296.107,120.307C285.998,120.307 277.805,111.494 277.807,100.625C277.805,89.758 285.998,80.946 296.107,80.946C306.215,80.946 314.408,89.756 314.406,100.625Z" style="fill:none;fill-rule:nonzero;stroke:black;stroke-width:5.07px;stroke-linecap:round;stroke-linejoin:round;"/>
        <path id="path3161" d="M298.144,104.107C298.145,107.729 295.415,110.668 292.044,110.668C288.674,110.668 285.942,107.729 285.945,104.107C285.942,100.483 288.674,97.544 292.044,97.544C295.414,97.544 298.145,100.483 298.144,104.107Z" style="fill-rule:nonzero;"/>
        <path id="path3157" d="M239.517,100.631C239.519,111.5 231.327,120.313 221.219,120.313C211.111,120.313 202.918,111.5 202.92,100.631C202.918,89.764 211.11,80.952 221.219,80.952C231.327,80.951 239.521,89.762 239.517,100.631Z" style="fill:none;fill-rule:nonzero;stroke:black;stroke-width:5.07px;stroke-linecap:round;stroke-linejoin:round;"/>
        <path id="path3163" d="M231.893,104.106C231.894,107.728 229.165,110.667 225.795,110.667C222.426,110.667 219.696,107.728 219.697,104.106C219.695,100.482 222.426,97.543 225.795,97.543C229.163,97.543 231.894,100.482 231.893,104.106Z" style="fill-rule:nonzero;"/>
        <path id="path9383-2" d="M117.045,176.081C98.991,171.214 81.025,162.43 65.33,149.51C47.764,133.08 35.789,115.69 22.524,92.79C22.066,91.183 21.598,89.79 21.278,88.713C23.21,89.374 25.211,90.096 27.203,90.862C30.727,94.724 38.262,102.042 44.68,107.103C60.274,121.902 64.578,123.67 76.64,131.48C83.136,135.28 90.079,137.37 97.259,138.629" style="fill:none;fill-rule:nonzero;stroke:black;stroke-width:3.27px;"/>
        <path id="path9535" d="M127.531,179.23C129.917,183.099 135.225,190.214 138.228,193.164C143.891,199.303 146.949,202.038 154.502,205.131C161.717,208.799 165.19,208.601 171.797,204.548C174.82,203.141 181.158,198.214 182.623,195.126C184.965,190.606 186.879,185.469 186.639,180.096C185.301,173.825 181.509,168.66 177.847,163.857C174.666,160.066 171.09,156.721 167.511,153.429L167.511,153.43C163.643,150.144 159.563,146.546 155.035,144.511" style="fill:none;fill-rule:nonzero;stroke:black;stroke-width:3.7px;"/>
        <path id="path9383" d="M161.281,158.84C161.165,144.727 121.008,101.053 89.779,87.129C63.856,78.012 39.893,76.647 9.637,77.998C2.167,80.737 -1.927,80.59 9.141,85.145C14.512,86.309 26.784,90.21 35.812,94.526C59.042,102.452 63.096,106.457 77.365,115.441C95.124,128.039 103.907,151.969 115.138,173.411C120.075,181.785 126.256,180.089 138.383,176.475C147.639,174.056 160.307,166.439 161.281,158.839L161.281,158.84Z" style="fill:none;fill-rule:nonzero;stroke:black;stroke-width:4.24px;"/>
        <path id="path9383-2-5" d="M409.898,247.936C409.445,257.298 409.885,266.456 412.543,275.188C417.445,289.13 418.274,293.999 428.855,312.506C432.488,320.472 438.189,330.069 440.895,333.93C445.634,343.234 443.284,340.755 437.829,338.111C419.517,321.311 405.958,306.481 394.256,285.659C388.186,273.046 384.055,259.471 381.673,245.689" style="fill:none;fill-rule:nonzero;stroke:black;stroke-width:3.27px;"/>
        <path id="path9535-5" d="M376.477,237.857C373.216,239.375 370.032,240.105 365.446,240.935C361.511,241.878 353.155,242.343 349.129,242.111C343.951,242.288 338.24,241.127 334.851,236.357C328.426,226.118 329.887,210.986 336.999,201.286C341.643,194.356 349.37,192.086 356.321,189.82L356.322,189.819C360.769,188.579 365.25,187.376 369.793,186.806C375.322,186.419 381.178,186.137 386.281,188.772C387.572,189.816 388.694,191.068 389.675,192.458" style="fill:none;fill-rule:nonzero;stroke:black;stroke-width:3.7px;"/>
        <path id="path9383-5" d="M377.411,196.09C384.508,190.293 394.607,192.747 402.755,194.454C424.273,200.298 444.428,211.145 461.589,225.366C472.128,234.994 479.952,247.257 487.142,259.503C494.824,273.404 501.491,287.987 506.802,302.921C507.538,305.909 508.893,314.583 503.891,308.917C498.251,303.123 493.775,296.223 487.911,290.581C477.928,280.939 469.399,269.606 457.544,262.055C449.796,256.421 441.584,250.903 431.907,249.424C416.068,246.273 399.892,249.036 383.939,248.529C379.492,242.739 377.864,242.144 374.237,232.445C372.076,223.901 371.212,218.681 370.484,211.671C370.012,205.662 372.395,199.601 377.41,196.089L377.411,196.09Z" style="fill:none;fill-rule:nonzero;stroke:black;stroke-width:4.25px;"/>
        <path id="path3163-9" d="M270.081,182.93C269.39,185.502 267.436,187.249 265.717,186.828C263.999,186.408 263.168,183.981 263.861,181.409C264.553,178.835 266.507,177.089 268.226,177.509C269.944,177.93 270.775,180.357 270.081,182.93Z" style="fill-rule:nonzero;"/>
        <path id="path3163-9-0" d="M245.751,183.68C246.443,186.252 248.397,187.999 250.116,187.578C251.834,187.158 252.665,184.731 251.972,182.159C251.28,179.585 249.325,177.839 247.607,178.259C245.889,178.68 245.058,181.107 245.751,183.68Z" style="fill-rule:nonzero;"/>
    </g>
</svg>
